<svg xmlns="http://www.w3.org/2000/svg" viewBox="0 0 200 200">
  <defs>
    <linearGradient id="a" x1="0" y1="0" x2="1" y2="1">
      <stop offset="0%" stop-color="#4D6BFE"/>
      <stop offset="100%" stop-color="#1E3AC8"/>
    </linearGradient>
  </defs>
  <rect width="200" height="200" rx="46" fill="url(#a)"/>
  <!-- body -->
  <path d="M56 68 C56 68 120 48 146 84 C163 111 148 152 112 155 C84 157 56 140 54 110 C52 86 56 68 56 68Z" fill="white" opacity="0.13"/>
  <path d="M62 76 C62 76 122 55 144 88 C160 113 146 148 112 151 C86 153 62 138 62 110 C62 88 62 76 62 76Z" fill="white" opacity="0.92"/>
  <path d="M84 96 C84 96 122 82 136 104 C148 123 135 147 112 148 C94 149 80 136 80 117 C80 104 84 96 84 96Z" fill="url(#a)"/>
  <!-- eye -->
  <circle cx="127" cy="88" r="9" fill="white"/>
  <circle cx="129" cy="86" r="4" fill="#1E3AC8"/>
  <!-- tail -->
  <path d="M60 100 L36 82 L33 116 Z" fill="white" opacity="0.82"/>
  <!-- dorsal fin -->
  <path d="M94 76 Q106 56 116 72" stroke="white" stroke-width="5" fill="none" stroke-linecap="round" opacity="0.7"/>
</svg>
